<svg width="24" height="28" viewBox="0 0 24 28" fill="none" xmlns="http://www.w3.org/2000/svg">
<path d="M12.3406 6.46154C13.6132 6.46154 15.2084 5.60712 16.1584 4.4679C17.0187 3.43547 17.646 1.99364 17.646 0.551812C17.646 0.356008 17.6281 0.160203 17.5923 0C16.1763 0.0534012 14.4735 0.943421 13.4518 2.13605C12.6453 3.04387 11.9104 4.4679 11.9104 5.92753C11.9104 6.14113 11.9462 6.35474 11.9642 6.42594C12.0538 6.44374 12.1972 6.46154 12.3406 6.46154ZM7.85958 28C9.5982 28 10.3689 26.843 12.5377 26.843C14.7424 26.843 15.2263 27.9644 17.1621 27.9644C19.062 27.9644 20.3346 26.22 21.5355 24.5111C22.8798 22.5531 23.4355 20.6306 23.4713 20.5416C23.3459 20.506 19.7073 19.0286 19.7073 14.8811C19.7073 11.2854 22.5751 9.66561 22.7364 9.541C20.8365 6.83535 17.9508 6.76414 17.1621 6.76414C15.0292 6.76414 13.2905 8.04577 12.1972 8.04577C11.0142 8.04577 9.45481 6.83535 7.60864 6.83535C4.09555 6.83535 0.528687 9.71901 0.528687 15.1659C0.528687 18.548 1.85506 22.1259 3.48614 24.4399C4.8842 26.398 6.10303 28 7.85958 28Z" fill="#000100"/>
</svg>
