<svg width="117" height="60" viewBox="0 0 117 60" fill="none" xmlns="http://www.w3.org/2000/svg">
<rect x="0.791748" y="0.5" width="115.708" height="59" rx="9.5" fill="#F6F6F6" stroke="#DDDFDD"/>
<path fill-rule="evenodd" clip-rule="evenodd" d="M72.1183 30.0856C72.1183 22.3063 65.8646 16 58.1502 16C50.4358 16 44.1821 22.3063 44.1821 30.0856C44.1821 37.1161 49.29 42.9433 55.9677 44V34.1572H52.4211V30.0856H55.9677V26.9823C55.9677 23.4521 58.053 21.5022 61.2436 21.5022C62.7718 21.5022 64.3703 21.7773 64.3703 21.7773V25.2436H62.609C60.8738 25.2436 60.3327 26.3294 60.3327 27.4433V30.0856H64.2067L63.5874 34.1572H60.3327V44C67.0103 42.9433 72.1183 37.1161 72.1183 30.0856Z" fill="#1778F2"/>
</svg>
