<svg width="117" height="60" viewBox="0 0 117 60" fill="none" xmlns="http://www.w3.org/2000/svg">
<rect x="0.5" y="0.5" width="115.708" height="59" rx="9.5" fill="#F6F6F6" stroke="#DDDFDD"/>
<path fill-rule="evenodd" clip-rule="evenodd" d="M72.2594 30.3182C72.2594 29.3255 72.1705 28.371 72.0055 27.4546H58.8529V32.87H66.3687C66.0449 34.62 65.061 36.1028 63.582 37.0955V40.6082H68.0953C70.7359 38.171 72.2594 34.5819 72.2594 30.3182Z" fill="#4285F4"/>
<path fill-rule="evenodd" clip-rule="evenodd" d="M58.8529 44.0002C62.6235 44.0002 65.7847 42.7465 68.0952 40.6083L63.582 37.0956C62.3315 37.9356 60.7318 38.432 58.8529 38.432C55.2156 38.432 52.1369 35.9692 51.0388 32.6602H46.3732V36.2874C48.6711 40.8629 53.3938 44.0002 58.8529 44.0002Z" fill="#34A853"/>
<path fill-rule="evenodd" clip-rule="evenodd" d="M51.0388 32.6602C50.7595 31.8202 50.6008 30.9229 50.6008 30.0002C50.6008 29.0774 50.7595 28.1802 51.0388 27.3402V23.7129H46.3732C45.4274 25.6029 44.8878 27.7411 44.8878 30.0002C44.8878 32.2593 45.4274 34.3974 46.3732 36.2874L51.0388 32.6602Z" fill="#FBBC05"/>
<path fill-rule="evenodd" clip-rule="evenodd" d="M58.8529 21.5682C60.9032 21.5682 62.7441 22.2745 64.1914 23.6618L68.1968 19.6464C65.7783 17.3873 62.6171 16 58.8529 16C53.3938 16 48.6711 19.1373 46.3732 23.7127L51.0388 27.34C52.1369 24.0309 55.2156 21.5682 58.8529 21.5682Z" fill="#EA4335"/>
</svg>
