<svg width="24" height="24" viewBox="0 0 24 24" fill="none" xmlns="http://www.w3.org/2000/svg">
<path fill-rule="evenodd" clip-rule="evenodd" d="M8 6C8 3.79086 9.79086 2 12 2C14.2091 2 16 3.79086 16 6V11C16 13.2091 14.2091 15 12 15C9.79086 15 8 13.2091 8 11V6ZM12 4C10.8954 4 10 4.89543 10 6V11C10 12.1046 10.8954 13 12 13C13.1046 13 14 12.1046 14 11V6C14 4.89543 13.1046 4 12 4ZM6 9C6.55228 9 7 9.44772 7 10V11C7 13.7614 9.23858 16 12 16C14.7614 16 17 13.7614 17 11V10C17 9.44772 17.4477 9 18 9C18.5523 9 19 9.44772 19 10V11C19 14.5265 16.3923 17.4439 13 17.9291V20H16C16.5523 20 17 20.4477 17 21C17 21.5523 16.5523 22 16 22H8C7.44772 22 7 21.5523 7 21C7 20.4477 7.44772 20 8 20H11V17.9291C7.60771 17.4439 5 14.5265 5 11V10C5 9.44772 5.44772 9 6 9Z" fill="white"/>
</svg>
