<svg width="20" height="20" viewBox="0 0 20 20" fill="none" xmlns="http://www.w3.org/2000/svg">
<path fill-rule="evenodd" clip-rule="evenodd" d="M17.8888 3.83358C18.3501 2.74622 17.2538 1.64992 16.1665 2.11123L2.80071 7.78156C1.68475 8.25499 1.75092 9.85846 2.90208 10.2383L7.58133 11.7825C7.88224 11.8818 8.11828 12.1178 8.21758 12.4187L9.76173 17.098C10.1416 18.2491 11.7451 18.3153 12.2185 17.1994L17.8888 3.83358ZM15.3854 0.270062C18.1282 -0.893569 20.8936 1.87183 19.73 4.61468L14.0597 17.9805C12.8654 20.7954 8.82073 20.6285 7.86247 17.7247L6.47619 13.5239L2.27533 12.1376C-0.628471 11.1793 -0.795371 7.13463 2.01961 5.94039L15.3854 0.270062Z" fill="white"/>
</svg>
