<svg width="24" height="24" viewBox="0 0 24 24" fill="none" xmlns="http://www.w3.org/2000/svg">
<path fill-rule="evenodd" clip-rule="evenodd" d="M17.9497 5.29289C18.3402 4.90237 18.9734 4.90237 19.3639 5.29289C20.1997 6.12862 20.8626 7.12077 21.3149 8.2127C21.7672 9.30463 22 10.475 22 11.6569C22 12.8388 21.7672 14.0091 21.3149 15.101C20.8626 16.1929 20.1997 17.1851 19.3639 18.0208C18.9734 18.4113 18.3402 18.4113 17.9497 18.0208C17.5592 17.6303 17.5592 16.9971 17.9497 16.6066C18.5997 15.9566 19.1154 15.1849 19.4671 14.3356C19.8189 13.4864 20 12.5761 20 11.6569C20 10.7376 19.8189 9.82735 19.4671 8.97807C19.1154 8.12879 18.5997 7.35712 17.9497 6.70711C17.5592 6.31658 17.5592 5.68342 17.9497 5.29289ZM10.1144 5.81585C11.4436 5.15946 13 6.12667 13 7.60911V16.3909C13 17.8733 11.4436 18.8405 10.1144 18.1841L6.36654 16.3333H4C2.89543 16.3333 2 15.4379 2 14.3333V9.66667C2 8.56209 2.89543 7.66667 4 7.66667L6.36654 7.66667L10.1144 5.81585ZM11 7.60911L7.2521 9.45993C6.97671 9.59592 6.67369 9.66667 6.36654 9.66667L4 9.66667V14.3333H6.36654C6.67369 14.3333 6.97671 14.4041 7.2521 14.5401L11 16.3909V7.60911ZM15.1213 8.12132C15.5118 7.7308 16.145 7.7308 16.5355 8.12132C16.9998 8.58561 17.3681 9.13681 17.6194 9.74344C17.8706 10.3501 18 11.0002 18 11.6569C18 12.3135 17.8706 12.9636 17.6194 13.5703C17.3681 14.1769 16.9998 14.7281 16.5355 15.1924C16.145 15.5829 15.5118 15.5829 15.1213 15.1924C14.7308 14.8019 14.7308 14.1687 15.1213 13.7782C15.3999 13.4996 15.6209 13.1689 15.7716 12.8049C15.9224 12.4409 16 12.0508 16 11.6569C16 11.2629 15.9224 10.8728 15.7716 10.5088C15.6208 10.1448 15.3999 9.81411 15.1213 9.53553C14.7308 9.14501 14.7308 8.51185 15.1213 8.12132Z" fill="white"/>
</svg>
